<mxfile host="app.diagrams.net" agent="Mozilla/5.0 (Windows NT 10.0; Win64; x64) AppleWebKit/537.36 (KHTML, like Gecko) Chrome/131.0.0.0 Safari/537.36" version="24.9.1">
  <diagram name="1 oldal" id="PlZLqPOgipxdHg0c1zmy">
    <mxGraphModel dx="2501" dy="780" grid="1" gridSize="10" guides="1" tooltips="1" connect="1" arrows="1" fold="1" page="1" pageScale="1" pageWidth="827" pageHeight="1169" math="0" shadow="0">
      <root>
        <mxCell id="0" />
        <mxCell id="1" parent="0" />
        <mxCell id="IspmSLApzF9-5Z9cCkxw-19" style="edgeStyle=orthogonalEdgeStyle;rounded=0;orthogonalLoop=1;jettySize=auto;html=1;" parent="1" source="IspmSLApzF9-5Z9cCkxw-4" target="IspmSLApzF9-5Z9cCkxw-11" edge="1">
          <mxGeometry relative="1" as="geometry" />
        </mxCell>
        <mxCell id="IspmSLApzF9-5Z9cCkxw-20" style="edgeStyle=orthogonalEdgeStyle;rounded=0;orthogonalLoop=1;jettySize=auto;html=1;exitX=1;exitY=0.3333333333333333;exitDx=0;exitDy=0;exitPerimeter=0;" parent="1" source="IspmSLApzF9-5Z9cCkxw-4" target="IspmSLApzF9-5Z9cCkxw-14" edge="1">
          <mxGeometry relative="1" as="geometry" />
        </mxCell>
        <mxCell id="IspmSLApzF9-5Z9cCkxw-21" style="edgeStyle=orthogonalEdgeStyle;rounded=0;orthogonalLoop=1;jettySize=auto;html=1;entryX=0.5;entryY=1;entryDx=0;entryDy=0;" parent="1" source="IspmSLApzF9-5Z9cCkxw-4" target="IspmSLApzF9-5Z9cCkxw-12" edge="1">
          <mxGeometry relative="1" as="geometry" />
        </mxCell>
        <mxCell id="IspmSLApzF9-5Z9cCkxw-26" style="edgeStyle=orthogonalEdgeStyle;rounded=0;orthogonalLoop=1;jettySize=auto;html=1;exitX=0.5;exitY=0.5;exitDx=0;exitDy=0;exitPerimeter=0;" parent="1" source="IspmSLApzF9-5Z9cCkxw-4" edge="1">
          <mxGeometry relative="1" as="geometry">
            <mxPoint x="350" y="200" as="targetPoint" />
          </mxGeometry>
        </mxCell>
        <mxCell id="IspmSLApzF9-5Z9cCkxw-27" style="edgeStyle=orthogonalEdgeStyle;rounded=0;orthogonalLoop=1;jettySize=auto;html=1;entryX=-0.014;entryY=0.371;entryDx=0;entryDy=0;entryPerimeter=0;" parent="1" source="IspmSLApzF9-5Z9cCkxw-4" target="IspmSLApzF9-5Z9cCkxw-9" edge="1">
          <mxGeometry relative="1" as="geometry">
            <mxPoint x="400" y="20" as="targetPoint" />
          </mxGeometry>
        </mxCell>
        <mxCell id="IspmSLApzF9-5Z9cCkxw-29" style="edgeStyle=orthogonalEdgeStyle;rounded=0;orthogonalLoop=1;jettySize=auto;html=1;entryX=0;entryY=0.5;entryDx=0;entryDy=0;" parent="1" source="IspmSLApzF9-5Z9cCkxw-4" target="IspmSLApzF9-5Z9cCkxw-13" edge="1">
          <mxGeometry relative="1" as="geometry" />
        </mxCell>
        <mxCell id="IspmSLApzF9-5Z9cCkxw-31" style="edgeStyle=orthogonalEdgeStyle;rounded=0;orthogonalLoop=1;jettySize=auto;html=1;" parent="1" source="IspmSLApzF9-5Z9cCkxw-4" target="IspmSLApzF9-5Z9cCkxw-10" edge="1">
          <mxGeometry relative="1" as="geometry" />
        </mxCell>
        <mxCell id="IspmSLApzF9-5Z9cCkxw-4" value="Felhasználó&lt;div&gt;(User)&lt;/div&gt;" style="shape=umlActor;verticalLabelPosition=bottom;verticalAlign=top;html=1;" parent="1" vertex="1">
          <mxGeometry x="370" y="180" width="30" height="60" as="geometry" />
        </mxCell>
        <mxCell id="IspmSLApzF9-5Z9cCkxw-36" style="edgeStyle=orthogonalEdgeStyle;rounded=0;orthogonalLoop=1;jettySize=auto;html=1;exitX=0.5;exitY=0.5;exitDx=0;exitDy=0;exitPerimeter=0;" parent="1" source="IspmSLApzF9-5Z9cCkxw-7" target="IspmSLApzF9-5Z9cCkxw-37" edge="1">
          <mxGeometry relative="1" as="geometry">
            <mxPoint x="50" y="610" as="targetPoint" />
          </mxGeometry>
        </mxCell>
        <mxCell id="IspmSLApzF9-5Z9cCkxw-7" value="Webáruház adminisztrátor&lt;div&gt;(Webshop Administrator)&lt;br&gt;&lt;div&gt;&lt;br&gt;&lt;/div&gt;&lt;/div&gt;" style="shape=umlActor;verticalLabelPosition=bottom;verticalAlign=top;html=1;" parent="1" vertex="1">
          <mxGeometry x="95" y="450" width="30" height="60" as="geometry" />
        </mxCell>
        <mxCell id="IspmSLApzF9-5Z9cCkxw-8" value="Regisztráció" style="ellipse;whiteSpace=wrap;html=1;" parent="1" vertex="1">
          <mxGeometry x="200" y="20" width="140" height="70" as="geometry" />
        </mxCell>
        <mxCell id="IspmSLApzF9-5Z9cCkxw-9" value="Profilkezelés" style="ellipse;whiteSpace=wrap;html=1;" parent="1" vertex="1">
          <mxGeometry x="370" y="10" width="140" height="70" as="geometry" />
        </mxCell>
        <mxCell id="IspmSLApzF9-5Z9cCkxw-10" value="Bejelentkezés" style="ellipse;whiteSpace=wrap;html=1;" parent="1" vertex="1">
          <mxGeometry x="410" y="300" width="140" height="70" as="geometry" />
        </mxCell>
        <mxCell id="IspmSLApzF9-5Z9cCkxw-11" value="Kosár kezelése&lt;div&gt;(Cart Management)&lt;/div&gt;" style="ellipse;whiteSpace=wrap;html=1;" parent="1" vertex="1">
          <mxGeometry x="640" y="220" width="140" height="70" as="geometry" />
        </mxCell>
        <mxCell id="IspmSLApzF9-5Z9cCkxw-12" value="Fizetés" style="ellipse;whiteSpace=wrap;html=1;" parent="1" vertex="1">
          <mxGeometry x="40" y="70" width="140" height="70" as="geometry" />
        </mxCell>
        <mxCell id="IspmSLApzF9-5Z9cCkxw-13" value="Termékek keresése és szűrése" style="ellipse;whiteSpace=wrap;html=1;" parent="1" vertex="1">
          <mxGeometry x="440" y="90" width="140" height="70" as="geometry" />
        </mxCell>
        <mxCell id="IspmSLApzF9-5Z9cCkxw-14" value="Rendelés nyomon követése" style="ellipse;whiteSpace=wrap;html=1;" parent="1" vertex="1">
          <mxGeometry x="610" y="80" width="140" height="70" as="geometry" />
        </mxCell>
        <mxCell id="IspmSLApzF9-5Z9cCkxw-15" value="Rendelések kezelése, nyomon követése" style="ellipse;whiteSpace=wrap;html=1;" parent="1" vertex="1">
          <mxGeometry x="270" y="450" width="140" height="70" as="geometry" />
        </mxCell>
        <mxCell id="IspmSLApzF9-5Z9cCkxw-16" value="Hírlevelek küldése" style="ellipse;whiteSpace=wrap;html=1;" parent="1" vertex="1">
          <mxGeometry x="30" y="320" width="140" height="70" as="geometry" />
        </mxCell>
        <mxCell id="IspmSLApzF9-5Z9cCkxw-17" value="Kétfaktoros hitelesítés" style="ellipse;whiteSpace=wrap;html=1;" parent="1" vertex="1">
          <mxGeometry x="620" y="460" width="140" height="70" as="geometry" />
        </mxCell>
        <mxCell id="IspmSLApzF9-5Z9cCkxw-18" style="edgeStyle=orthogonalEdgeStyle;rounded=0;orthogonalLoop=1;jettySize=auto;html=1;exitX=0.75;exitY=0.1;exitDx=0;exitDy=0;exitPerimeter=0;entryX=0.086;entryY=0.743;entryDx=0;entryDy=0;entryPerimeter=0;" parent="1" source="IspmSLApzF9-5Z9cCkxw-4" target="IspmSLApzF9-5Z9cCkxw-8" edge="1">
          <mxGeometry relative="1" as="geometry" />
        </mxCell>
        <mxCell id="IspmSLApzF9-5Z9cCkxw-25" style="edgeStyle=orthogonalEdgeStyle;rounded=0;orthogonalLoop=1;jettySize=auto;html=1;entryX=0;entryY=0.5;entryDx=0;entryDy=0;" parent="1" source="IspmSLApzF9-5Z9cCkxw-22" target="IspmSLApzF9-5Z9cCkxw-17" edge="1">
          <mxGeometry relative="1" as="geometry" />
        </mxCell>
        <mxCell id="IspmSLApzF9-5Z9cCkxw-22" value="Rendszer&lt;div&gt;(Webshop System)&lt;/div&gt;" style="shape=umlActor;verticalLabelPosition=bottom;verticalAlign=top;html=1;" parent="1" vertex="1">
          <mxGeometry x="510" y="465" width="30" height="60" as="geometry" />
        </mxCell>
        <mxCell id="IspmSLApzF9-5Z9cCkxw-23" style="edgeStyle=orthogonalEdgeStyle;rounded=0;orthogonalLoop=1;jettySize=auto;html=1;entryX=0.021;entryY=0.371;entryDx=0;entryDy=0;entryPerimeter=0;" parent="1" source="IspmSLApzF9-5Z9cCkxw-7" target="IspmSLApzF9-5Z9cCkxw-15" edge="1">
          <mxGeometry relative="1" as="geometry" />
        </mxCell>
        <mxCell id="IspmSLApzF9-5Z9cCkxw-24" style="edgeStyle=orthogonalEdgeStyle;rounded=0;orthogonalLoop=1;jettySize=auto;html=1;entryX=-0.007;entryY=0.371;entryDx=0;entryDy=0;entryPerimeter=0;" parent="1" source="IspmSLApzF9-5Z9cCkxw-7" target="IspmSLApzF9-5Z9cCkxw-16" edge="1">
          <mxGeometry relative="1" as="geometry" />
        </mxCell>
        <mxCell id="IspmSLApzF9-5Z9cCkxw-32" value="Termékállomány elérhetőségének biztosítása, termékek, árak, készletek folyamatos frissítése&lt;div&gt;&lt;div&gt;&lt;br&gt;&lt;/div&gt;&lt;/div&gt;" style="ellipse;whiteSpace=wrap;html=1;" parent="1" vertex="1">
          <mxGeometry x="190" y="280" width="170" height="90" as="geometry" />
        </mxCell>
        <mxCell id="IspmSLApzF9-5Z9cCkxw-33" value="Felhasználói fiókok kezelése" style="ellipse;whiteSpace=wrap;html=1;" parent="1" vertex="1">
          <mxGeometry x="260" y="585" width="140" height="70" as="geometry" />
        </mxCell>
        <mxCell id="IspmSLApzF9-5Z9cCkxw-34" style="edgeStyle=orthogonalEdgeStyle;rounded=0;orthogonalLoop=1;jettySize=auto;html=1;entryX=-0.007;entryY=0.643;entryDx=0;entryDy=0;entryPerimeter=0;" parent="1" source="IspmSLApzF9-5Z9cCkxw-7" target="IspmSLApzF9-5Z9cCkxw-33" edge="1">
          <mxGeometry relative="1" as="geometry" />
        </mxCell>
        <mxCell id="IspmSLApzF9-5Z9cCkxw-35" style="edgeStyle=orthogonalEdgeStyle;rounded=0;orthogonalLoop=1;jettySize=auto;html=1;entryX=0.007;entryY=0.371;entryDx=0;entryDy=0;entryPerimeter=0;" parent="1" source="IspmSLApzF9-5Z9cCkxw-7" target="IspmSLApzF9-5Z9cCkxw-32" edge="1">
          <mxGeometry relative="1" as="geometry" />
        </mxCell>
        <mxCell id="IspmSLApzF9-5Z9cCkxw-37" value="Felhasználói megkeresések megválaszolása" style="ellipse;whiteSpace=wrap;html=1;" parent="1" vertex="1">
          <mxGeometry x="-90" y="570" width="140" height="70" as="geometry" />
        </mxCell>
        <mxCell id="IspmSLApzF9-5Z9cCkxw-43" value="&amp;lt;&amp;lt;include&amp;gt;&amp;gt;" style="html=1;verticalAlign=bottom;labelBackgroundColor=none;endArrow=open;endFill=0;dashed=1;rounded=0;exitX=1;exitY=1;exitDx=0;exitDy=0;" parent="1" source="IspmSLApzF9-5Z9cCkxw-10" target="IspmSLApzF9-5Z9cCkxw-17" edge="1">
          <mxGeometry width="160" relative="1" as="geometry">
            <mxPoint x="620" y="430" as="sourcePoint" />
            <mxPoint x="780" y="430" as="targetPoint" />
          </mxGeometry>
        </mxCell>
        <mxCell id="IspmSLApzF9-5Z9cCkxw-44" value="Kupon alkalmazása (opcionális)" style="ellipse;whiteSpace=wrap;html=1;" parent="1" vertex="1">
          <mxGeometry x="910" y="180" width="140" height="70" as="geometry" />
        </mxCell>
        <mxCell id="IspmSLApzF9-5Z9cCkxw-47" value="&amp;lt;&amp;lt;extend&amp;gt;&amp;gt;" style="html=1;verticalAlign=bottom;labelBackgroundColor=none;endArrow=open;endFill=0;dashed=1;rounded=0;exitX=1;exitY=0.5;exitDx=0;exitDy=0;" parent="1" source="IspmSLApzF9-5Z9cCkxw-11" target="IspmSLApzF9-5Z9cCkxw-44" edge="1">
          <mxGeometry width="160" relative="1" as="geometry">
            <mxPoint x="820" y="270" as="sourcePoint" />
            <mxPoint x="980" y="270" as="targetPoint" />
          </mxGeometry>
        </mxCell>
        <mxCell id="IspmSLApzF9-5Z9cCkxw-48" value="Ajándék választása a rendelésért&amp;nbsp;&lt;div&gt;(opcionális)&lt;/div&gt;" style="ellipse;whiteSpace=wrap;html=1;" parent="1" vertex="1">
          <mxGeometry x="827" y="70" width="140" height="70" as="geometry" />
        </mxCell>
        <mxCell id="IspmSLApzF9-5Z9cCkxw-50" value="&amp;lt;&amp;lt;extend&amp;gt;&amp;gt;" style="html=1;verticalAlign=bottom;labelBackgroundColor=none;endArrow=open;endFill=0;dashed=1;rounded=0;exitX=0.714;exitY=0;exitDx=0;exitDy=0;exitPerimeter=0;" parent="1" source="IspmSLApzF9-5Z9cCkxw-11" target="IspmSLApzF9-5Z9cCkxw-48" edge="1">
          <mxGeometry width="160" relative="1" as="geometry">
            <mxPoint x="780" y="180" as="sourcePoint" />
            <mxPoint x="940" y="180" as="targetPoint" />
          </mxGeometry>
        </mxCell>
      </root>
    </mxGraphModel>
  </diagram>
</mxfile>
